<svg width="1200" height="700" xmlns="http://www.w3.org/2000/svg">
  <defs>
    <linearGradient id="bg" x1="0" y1="0" x2="1" y2="1"><stop offset="0" stop-color="#0b1020"/><stop offset="1" stop-color="#1a2240"/></linearGradient>
  </defs>
  <rect width="1200" height="700" fill="url(#bg)"/>
  <rect x="30" y="30" width="1140" height="640" rx="18" fill="none" stroke="#5c7cff" stroke-width="3"/>
  <text x="70" y="90" fill="#ffffff" font-size="34" font-family="Arial">BooyahIndia — Tournament Lobby Preview</text>
  <rect x="70" y="130" width="760" height="500" rx="16" fill="#151823" stroke="#2a3357"/>
  <rect x="860" y="130" width="280" height="500" rx="16" fill="#121625" stroke="#23d7ff"/>
  <text x="900" y="180" fill="#fff" font-size="24" font-family="Arial">Live Stats</text>
  <text x="900" y="230" fill="#d8def7" font-size="18" font-family="Arial">Users: 1,520</text>
  <text x="900" y="270" fill="#d8def7" font-size="18" font-family="Arial">Live Matches: 73</text>
  <text x="900" y="310" fill="#d8def7" font-size="18" font-family="Arial">Prize Pool: ₹2.8L</text>
  <rect x="110" y="200" width="680" height="58" rx="10" fill="#0f1322" stroke="#374777"/>
  <rect x="110" y="280" width="680" height="58" rx="10" fill="#0f1322" stroke="#374777"/>
  <rect x="110" y="360" width="680" height="58" rx="10" fill="#0f1322" stroke="#374777"/>
  <rect x="110" y="440" width="680" height="58" rx="10" fill="#0f1322" stroke="#374777"/>
  <rect x="110" y="545" width="260" height="58" rx="12" fill="#5c7cff"/>
  <text x="160" y="582" fill="#fff" font-size="24" font-family="Arial">Join Match</text>
</svg>
